HIERARCHY
ROOT Hips
{
	OFFSET 0.000000 97.167313 0.000000
	CHANNELS 6 Xposition Yposition Zposition Xrotation Yrotation Zrotation
	JOINT Spine
	{
		OFFSET 0.000000 13.784798 0.064400
		CHANNELS 3 Xrotation Yrotation Zrotation
		JOINT Spine1
		{
			OFFSET 0.000000 12.037903 0.404700
			CHANNELS 3 Xrotation Yrotation Zrotation
			JOINT Spine2
			{
				OFFSET 0.000000 17.795601 0.420200
				CHANNELS 3 Xrotation Yrotation Zrotation
				JOINT Neck
				{
					OFFSET 0.000000 39.131302 11.954600
					CHANNELS 3 Xrotation Yrotation Zrotation
					JOINT Head
					{
						OFFSET 0.000000 14.456192 15.627699
						CHANNELS 3 Xrotation Yrotation Zrotation
						JOINT HeadTop_End
						{
							OFFSET 0.000000 15.703506 7.603401
							CHANNELS 3 Xrotation Yrotation Zrotation
							End Site
							{
								OFFSET 0.000000 17.447403 0.000000
							}
						}
					}
				}
				JOINT LeftShoulder
				{
					OFFSET 17.399500 24.608795 1.168800
					CHANNELS 3 Xrotation Yrotation Zrotation
					JOINT LeftArm
					{
						OFFSET 18.980635 5.765305 1.818600
						CHANNELS 3 Xrotation Yrotation Zrotation
						JOINT LeftForeArm
						{
							OFFSET 49.290169 0.000000 0.000000
							CHANNELS 3 Xrotation Yrotation Zrotation
							JOINT LeftHand
							{
								OFFSET 31.562012 0.000000 0.000000
								CHANNELS 3 Xrotation Yrotation Zrotation
								JOINT LeftHandThumb1
								{
									OFFSET 6.133995 -4.388519 7.076070
									CHANNELS 3 Xrotation Yrotation Zrotation
									JOINT LeftHandThumb2
									{
										OFFSET 6.037666 -3.485840 3.485847
										CHANNELS 3 Xrotation Yrotation Zrotation
										JOINT LeftHandThumb3
										{
											OFFSET 6.496506 -3.750763 3.750761
											CHANNELS 3 Xrotation Yrotation Zrotation
											JOINT LeftHandThumb4
											{
												OFFSET 5.616882 -3.242905 3.242910
												CHANNELS 3 Xrotation Yrotation Zrotation
												End Site
												{
													OFFSET -1.254608 7.132141 0.375429
												}
											}
										}
									}
								}
								JOINT LeftHandPinky1
								{
									OFFSET 18.920792 -0.453171 -11.426712
									CHANNELS 3 Xrotation Yrotation Zrotation
									JOINT LeftHandPinky2
									{
										OFFSET 4.919586 0.000000 0.000000
										CHANNELS 3 Xrotation Yrotation Zrotation
										JOINT LeftHandPinky3
										{
											OFFSET 5.233047 0.000000 0.000000
											CHANNELS 3 Xrotation Yrotation Zrotation
											JOINT LeftHandPinky4
											{
												OFFSET 5.571716 0.000000 0.000000
												CHANNELS 3 Xrotation Yrotation Zrotation
												End Site
												{
													OFFSET -3.459808 4.342407 -0.466164
												}
											}
										}
									}
								}
								JOINT LeftHandRing1
								{
									OFFSET 22.726120 -0.094986 -6.500475
									CHANNELS 3 Xrotation Yrotation Zrotation
									JOINT LeftHandRing2
									{
										OFFSET 6.408615 0.000000 0.000000
										CHANNELS 3 Xrotation Yrotation Zrotation
										JOINT LeftHandRing3
										{
											OFFSET 6.150223 0.000000 0.000000
											CHANNELS 3 Xrotation Yrotation Zrotation
											JOINT LeftHandRing4
											{
												OFFSET 6.145386 0.000000 0.000000
												CHANNELS 3 Xrotation Yrotation Zrotation
												End Site
												{
													OFFSET -3.671402 4.923981 -0.202372
												}
											}
										}
									}
								}
								JOINT LeftHandMiddle1
								{
									OFFSET 23.373947 0.000000 0.000001
									CHANNELS 3 Xrotation Yrotation Zrotation
									JOINT LeftHandMiddle2
									{
										OFFSET 6.996567 0.000000 0.000000
										CHANNELS 3 Xrotation Yrotation Zrotation
										JOINT LeftHandMiddle3
										{
											OFFSET 7.015945 0.000000 0.000000
											CHANNELS 3 Xrotation Yrotation Zrotation
											JOINT LeftHandMiddle4
											{
												OFFSET 7.721573 0.000000 0.000000
												CHANNELS 3 Xrotation Yrotation Zrotation
												End Site
												{
													OFFSET -4.651108 6.158463 0.251582
												}
											}
										}
									}
								}
								JOINT LeftHandIndex1
								{
									OFFSET 21.310577 -0.490082 6.209344
									CHANNELS 3 Xrotation Yrotation Zrotation
									JOINT LeftHandIndex2
									{
										OFFSET 7.536453 0.000000 0.000000
										CHANNELS 3 Xrotation Yrotation Zrotation
										JOINT LeftHandIndex3
										{
											OFFSET 7.512344 0.000000 0.000000
											CHANNELS 3 Xrotation Yrotation Zrotation
											JOINT LeftHandIndex4
											{
												OFFSET 10.212402 0.000000 0.000001
												CHANNELS 3 Xrotation Yrotation Zrotation
												End Site
												{
													OFFSET -5.180801 8.690506 1.388433
												}
											}
										}
									}
								}
							}
						}
					}
				}
				JOINT RightShoulder
				{
					OFFSET -17.399500 24.608795 1.168800
					CHANNELS 3 Xrotation Yrotation Zrotation
					JOINT RightArm
					{
						OFFSET -18.980635 5.765305 1.818600
						CHANNELS 3 Xrotation Yrotation Zrotation
						JOINT RightForeArm
						{
							OFFSET -49.290169 0.000000 0.000000
							CHANNELS 3 Xrotation Yrotation Zrotation
							JOINT RightHand
							{
								OFFSET -31.562012 0.000000 0.000000
								CHANNELS 3 Xrotation Yrotation Zrotation
								JOINT RightHandThumb1
								{
									OFFSET -6.133995 -4.388519 7.076070
									CHANNELS 3 Xrotation Yrotation Zrotation
									JOINT RightHandThumb2
									{
										OFFSET -6.037666 -3.485840 3.485847
										CHANNELS 3 Xrotation Yrotation Zrotation
										JOINT RightHandThumb3
										{
											OFFSET -6.496506 -3.750763 3.750761
											CHANNELS 3 Xrotation Yrotation Zrotation
											JOINT RightHandThumb4
											{
												OFFSET -5.616882 -3.242905 3.242910
												CHANNELS 3 Xrotation Yrotation Zrotation
												End Site
												{
													OFFSET 1.254608 7.132141 0.375429
												}
											}
										}
									}
								}
								JOINT RightHandIndex1
								{
									OFFSET -21.310577 -0.490082 6.209344
									CHANNELS 3 Xrotation Yrotation Zrotation
									JOINT RightHandIndex2
									{
										OFFSET -7.536453 0.000000 0.000000
										CHANNELS 3 Xrotation Yrotation Zrotation
										JOINT RightHandIndex3
										{
											OFFSET -7.512344 0.000000 0.000000
											CHANNELS 3 Xrotation Yrotation Zrotation
											JOINT RightHandIndex4
											{
												OFFSET -10.212402 0.000000 0.000001
												CHANNELS 3 Xrotation Yrotation Zrotation
												End Site
												{
													OFFSET 5.180801 8.690506 1.388433
												}
											}
										}
									}
								}
								JOINT RightHandMiddle1
								{
									OFFSET -23.373947 0.000000 0.000001
									CHANNELS 3 Xrotation Yrotation Zrotation
									JOINT RightHandMiddle2
									{
										OFFSET -6.996567 0.000000 0.000000
										CHANNELS 3 Xrotation Yrotation Zrotation
										JOINT RightHandMiddle3
										{
											OFFSET -7.015945 0.000000 0.000000
											CHANNELS 3 Xrotation Yrotation Zrotation
											JOINT RightHandMiddle4
											{
												OFFSET -7.721573 0.000000 0.000000
												CHANNELS 3 Xrotation Yrotation Zrotation
												End Site
												{
													OFFSET 4.651108 6.158463 0.251582
												}
											}
										}
									}
								}
								JOINT RightHandRing1
								{
									OFFSET -22.726120 -0.094986 -6.500475
									CHANNELS 3 Xrotation Yrotation Zrotation
									JOINT RightHandRing2
									{
										OFFSET -6.408615 0.000000 0.000000
										CHANNELS 3 Xrotation Yrotation Zrotation
										JOINT RightHandRing3
										{
											OFFSET -6.150223 0.000000 0.000000
											CHANNELS 3 Xrotation Yrotation Zrotation
											JOINT RightHandRing4
											{
												OFFSET -6.145386 0.000000 0.000000
												CHANNELS 3 Xrotation Yrotation Zrotation
												End Site
												{
													OFFSET 3.671402 4.923981 -0.202372
												}
											}
										}
									}
								}
								JOINT RightHandPinky1
								{
									OFFSET -18.920792 -0.453171 -11.426712
									CHANNELS 3 Xrotation Yrotation Zrotation
									JOINT RightHandPinky2
									{
										OFFSET -4.919586 0.000000 0.000000
										CHANNELS 3 Xrotation Yrotation Zrotation
										JOINT RightHandPinky3
										{
											OFFSET -5.233047 0.000000 0.000000
											CHANNELS 3 Xrotation Yrotation Zrotation
											JOINT RightHandPinky4
											{
												OFFSET -5.571716 0.000000 0.000000
												CHANNELS 3 Xrotation Yrotation Zrotation
												End Site
												{
													OFFSET 3.459808 4.342407 -0.466164
												}
											}
										}
									}
								}
							}
						}
					}
				}
			}
		}
	}
	JOINT LeftUpLeg
	{
		OFFSET 19.899099 -7.885101 -3.429500
		CHANNELS 3 Xrotation Yrotation Zrotation
		JOINT LeftLeg
		{
			OFFSET 1.745560 -36.997807 10.304700
			CHANNELS 3 Xrotation Yrotation Zrotation
			JOINT LeftFoot
			{
				OFFSET -1.745558 -29.803308 -13.615400
				CHANNELS 3 Xrotation Yrotation Zrotation
				JOINT LeftToeBase
				{
					OFFSET 1.181900 -18.539904 15.226099
					CHANNELS 3 Xrotation Yrotation Zrotation
					JOINT LeftToe_End
					{
						OFFSET -0.863701 1.402801 16.534700
						CHANNELS 3 Xrotation Yrotation Zrotation
						End Site
						{
							OFFSET 0.000000 16.616566 0.000000
						}
					}
				}
			}
		}
	}
	JOINT RightUpLeg
	{
		OFFSET -19.899099 -7.885101 -3.429500
		CHANNELS 3 Xrotation Yrotation Zrotation
		JOINT RightLeg
		{
			OFFSET -1.745560 -36.997807 10.304700
			CHANNELS 3 Xrotation Yrotation Zrotation
			JOINT RightFoot
			{
				OFFSET 1.745558 -29.803308 -13.615400
				CHANNELS 3 Xrotation Yrotation Zrotation
				JOINT RightToeBase
				{
					OFFSET -1.181900 -18.539904 15.226099
					CHANNELS 3 Xrotation Yrotation Zrotation
					JOINT RightToe_End
					{
						OFFSET 0.863701 1.402801 16.534700
						CHANNELS 3 Xrotation Yrotation Zrotation
						End Site
						{
							OFFSET 0.000000 16.616566 0.000000
						}
					}
				}
			}
		}
	}
}
MOTION
Frames: 6
Frame Time: 0.033333
2.451759 79.030853 32.178093 6.288264 1.191004 -18.481280 8.541574 0.927405 -4.249730 10.520415 -4.226610 -1.863486 7.787859 -5.128180 -9.990894 0.678929 4.030380 6.866988 0.565208 1.497942 14.882468 0.000001 0.000000 0.000000 0.001774 -11.202408 -24.083573 -20.318705 13.621999 -9.540091 0.000005 -19.417926 0.000009 22.775288 -19.037308 28.658862 -9.419664 -10.822458 7.008982 10.170301 -4.322708 4.569261 -8.567772 -8.346882 9.539114 0.000001 -0.000002 -0.000003 -7.620141 28.015993 -9.623468 0.125938 1.209450 -11.889044 0.008558 -0.316711 3.092031 -0.000000 0.000001 -0.000004 1.053861 14.399659 -4.229028 0.060309 0.839311 -8.219071 0.054407 -0.797432 7.806233 -0.000003 0.000001 0.000005 -0.044082 4.615450 2.730328 0.036135 0.650375 -6.359929 0.107960 -1.120678 11.004879 0.000001 0.000000 0.000008 5.658856 -6.936043 13.593063 0.022000 0.507864 -4.962257 0.130319 -1.230061 12.094791 -0.000001 0.000001 -0.000001 4.765808 9.039901 -0.709781 -42.938056 37.798844 12.609800 0.000056 58.278446 -0.000031 32.873919 29.652542 -47.766593 -20.919065 29.959904 -11.996452 8.212224 -26.516893 -4.239192 -11.623555 -8.673958 -20.488015 -0.000000 -0.000004 0.000002 3.526438 18.253406 -7.606274 -0.000007 0.000003 0.000020 0.158028 1.204124 -14.952698 -0.000005 0.000000 0.000001 -0.198205 -5.945222 -3.861870 -0.000006 -0.000263 0.003353 0.054431 0.710542 -8.756855 -0.000002 0.000000 -0.000008 0.082175 -11.467320 -0.159894 0.000023 -0.016413 0.201475 0.156197 1.197238 -14.865155 0.000001 -0.000003 -0.000003 -5.377475 -17.830979 6.074127 0.000015 -0.000001 -0.000001 0.123260 1.065529 -13.197748 -0.000001 -0.000000 0.000006 -59.619717 -0.799271 6.758618 60.022111 2.351688 -1.753344 -3.734194 24.299709 11.566122 -22.167601 0.000008 0.000004 0.000001 0.000001 -0.000000 -51.924976 -10.644625 -9.075799 98.245502 -1.320042 8.553042 2.652572 4.190637 6.624235 -3.439135 0.000004 0.000001 -0.000003 0.000000 -0.000002 
3.653385 76.749146 24.935308 8.083496 -3.471941 -14.764535 10.901673 2.565802 -4.644616 9.198460 -3.576418 -2.534361 7.822219 -2.214239 -9.457880 -0.699399 4.317325 6.818349 -2.838258 1.880990 12.494503 -0.000004 -0.000001 0.000000 0.577950 -6.818609 -23.348788 -17.088778 22.605881 -15.098777 0.000006 -16.537787 -0.000008 19.855611 -17.551465 28.251278 -8.965949 -9.686406 7.043282 10.176046 -3.051951 4.404734 -8.799774 -9.343192 9.242593 0.000001 -0.000002 -0.000002 -7.291934 27.182474 -8.976628 0.241913 1.667706 -16.506054 0.007305 0.292628 -2.856724 0.000000 -0.000000 -0.000001 0.887226 13.649316 -3.714850 0.130306 1.229947 -12.093661 0.014272 -0.409249 3.996835 -0.000000 0.000002 0.000005 -0.062250 3.870628 4.291423 0.080417 0.968400 -9.494240 0.066762 -0.882918 8.649275 -0.000000 -0.000000 0.000004 5.465250 -6.890537 12.416178 0.049131 0.757931 -7.417278 0.095010 -1.051906 10.321708 -0.000001 0.000001 -0.000003 3.918108 8.785105 -2.217238 -47.871047 49.632601 13.150296 0.000039 64.091907 -0.000034 42.493493 29.696054 -49.206363 -21.233110 30.441791 -11.446773 8.230036 -26.761386 -4.273001 -11.013045 -8.522610 -20.068353 0.000000 -0.000001 0.000003 3.260752 17.896388 -4.971920 0.000006 -0.011862 0.145594 0.152067 1.181614 -14.666593 -0.000001 -0.000003 -0.000001 -0.140364 -4.852926 -4.059248 0.000093 -0.030453 0.373812 0.047916 0.666967 -8.215853 -0.000000 -0.000002 -0.000004 0.121368 -11.431297 0.090864 0.000350 -0.056354 0.691802 0.153761 1.188039 -14.748287 -0.000003 -0.000001 -0.000005 -4.745676 -17.824530 6.660180 0.000171 -0.039414 0.483732 0.109265 1.003971 -12.422638 -0.000000 -0.000002 0.000002 -66.454851 -1.758227 1.172257 55.158569 3.860641 0.908559 5.262593 24.940854 9.827012 -19.484827 0.000015 -0.000000 -0.000000 -0.000001 -0.000001 -30.891979 -10.739370 -6.816599 87.677096 -1.708140 8.975999 0.775996 1.414966 12.548352 -1.823084 -0.000015 0.000014 0.000003 0.000001 -0.000002 
4.268171 75.624321 19.844034 10.305259 -7.331321 -11.321396 13.289619 3.774472 -5.471128 7.828763 -2.940999 -3.394606 7.739774 0.631977 -9.090866 -1.984951 4.496941 6.727495 -6.015575 2.110281 10.235254 -0.000001 0.000000 0.000000 1.216747 -2.923233 -21.495386 -13.340737 28.411254 -21.242203 0.000007 -13.536283 0.000003 17.282195 -15.527576 30.395141 -8.530274 -8.771775 6.959670 10.129044 -1.089316 4.105514 -8.991071 -10.148916 8.999119 -0.000001 0.000000 0.000003 -6.423562 25.956230 -9.374757 0.361200 2.027047 -20.204955 0.056867 0.815082 -7.980091 0.000002 -0.000001 0.000001 0.869611 12.776789 -4.030270 0.206847 1.544472 -15.254688 0.000097 -0.034437 0.336114 0.000001 -0.000003 0.000007 -0.023714 3.199255 4.714554 0.130641 1.231555 -12.109700 0.032012 -0.612281 5.985905 -0.000000 -0.000000 0.000004 5.125344 -6.924488 10.855391 0.079916 0.965393 -9.464406 0.060284 -0.839122 8.217108 -0.000002 0.000003 0.000001 2.909944 8.443396 -2.071728 -57.084535 59.867995 19.595427 0.000043 67.886582 -0.000020 48.447287 31.384173 -48.278178 -21.335436 30.720371 -10.434182 8.293413 -27.464515 -4.326585 -10.440034 -7.994110 -19.577989 -0.000000 -0.000000 -0.000002 3.005034 16.913147 -2.615691 0.000445 -0.064141 0.787470 0.127153 1.081974 -13.405554 0.000002 -0.000002 0.000001 -0.052013 -4.227619 -2.860097 0.002297 -0.146191 1.794851 0.028659 0.516412 -6.352439 0.000000 0.000003 -0.000001 0.391701 -11.273526 1.861526 0.004179 -0.197216 2.421712 0.113000 1.020778 -12.634158 -0.000001 0.000001 -0.000003 -3.734789 -17.647250 8.886108 0.004857 -0.213032 2.616171 0.067447 0.790451 -9.750948 0.000003 -0.000001 -0.000001 -68.652103 -0.689812 -0.320853 49.667165 6.857898 1.123649 5.110669 26.032868 11.534358 -12.392401 -0.000003 0.000003 -0.000000 -0.000002 -0.000001 -19.486782 -10.707861 -6.595459 76.188137 -0.833812 8.534765 2.492235 -1.213311 14.055857 0.732580 -0.037224 2.275945 -0.000001 0.000000 -0.000002 
4.590246 74.901138 16.106960 12.653209 -10.473160 -8.324987 15.545536 4.863748 -6.328832 6.485495 -2.307343 -4.321993 7.533679 3.320646 -8.815387 -3.103944 4.545706 6.602133 -8.821996 2.140923 8.230795 0.000002 -0.000000 0.000000 1.859857 -0.286864 -19.866669 -10.165825 30.175106 -26.041607 -0.000005 -11.554270 0.000017 14.280104 -14.672829 33.004198 -8.114167 -8.064596 6.766803 10.037668 1.406824 3.717073 -9.149759 -10.807413 8.797411 0.000002 0.000001 -0.000001 -5.034701 24.375651 -11.028692 0.454222 2.263666 -22.689412 0.124966 1.204882 -11.843516 0.000001 0.000001 -0.000004 0.996267 11.841003 -5.359239 0.268160 1.753866 -17.385719 0.007892 0.304099 -2.968806 -0.000001 -0.000002 0.000005 0.033817 2.630658 3.733322 0.173432 1.416308 -13.961305 0.008417 -0.314318 3.068659 -0.000002 -0.000006 0.000010 4.601091 -7.013297 8.817462 0.106151 1.111297 -10.911587 0.030097 -0.593633 5.803035 -0.000000 0.000001 -0.000001 1.992302 8.853914 -0.911931 -66.971712 66.326744 28.285101 0.000068 71.403686 -0.000056 50.031508 33.100453 -45.538029 -21.105961 30.695440 -9.305006 8.444494 -29.048200 -4.417273 -9.920009 -7.195903 -19.047951 0.000001 -0.000001 0.000001 2.666330 15.230526 -0.548573 0.002650 -0.157454 1.933196 0.088169 0.902887 -11.154756 0.000001 -0.000001 -0.000003 0.044174 -4.122494 -0.189785 0.013351 -0.352846 4.335575 0.006510 0.246418 -3.026329 0.000001 0.000002 -0.000004 0.854664 -10.937342 5.147263 0.021660 -0.449200 5.522798 0.049859 0.680389 -8.382296 0.000002 -0.000004 0.000002 -2.421739 -17.065248 12.715784 0.029293 -0.522104 6.422771 0.017639 0.405382 -4.982663 -0.000001 -0.000001 0.000007 -70.389122 0.483410 -0.345692 45.134020 8.936532 0.450096 4.477185 27.489085 13.612387 -6.140824 -0.000007 0.000001 0.000001 -0.000001 -0.000000 -10.969818 -9.975700 -6.855486 64.460136 0.021645 8.387354 4.475778 -3.517546 14.384571 -2.819426 -1.285732 7.542973 -0.000000 0.000000 0.000001 
4.765316 74.166275 13.493549 14.828540 -12.851345 -5.858853 17.487620 5.966179 -6.994256 5.315047 -1.656381 -5.136037 7.231028 5.599045 -8.569754 -3.976208 4.435410 6.448785 -11.106803 1.915473 6.617681 0.000000 -0.000000 -0.000000 2.350697 0.968719 -18.971916 -8.462236 29.762099 -28.859629 0.000006 -10.650780 0.000000 12.075271 -15.150922 33.895920 -7.736752 -7.606358 6.455968 9.897787 4.289920 3.273629 -9.279165 -11.339024 8.632815 0.000000 0.000001 0.000000 -3.453768 22.425553 -13.511517 0.519054 2.412762 -24.278450 0.194275 1.497624 -14.781072 -0.000000 0.000001 -0.000000 1.170684 10.842370 -7.418516 0.311874 1.887731 -18.761239 0.032266 0.614701 -6.009694 -0.000002 -0.000004 0.000007 0.067597 2.134960 1.725095 0.206772 1.544206 -15.252012 0.000005 0.003135 -0.030584 -0.000004 -0.000002 -0.000001 3.924125 -7.107865 6.406486 0.126554 1.212392 -11.918287 0.008960 -0.324252 3.165771 0.000001 -0.000000 -0.000003 1.256952 9.726758 0.502615 -72.601004 70.239958 33.555644 0.000043 74.915694 -0.000032 48.207332 33.764750 -41.529107 -20.667823 30.476991 -7.948374 8.638073 -31.047366 -4.518381 -9.453534 -6.161598 -18.483878 0.000004 -0.000002 0.000002 2.283400 13.079471 1.408809 0.008243 -0.277284 3.405797 0.048443 0.670700 -8.262213 -0.000001 -0.000003 -0.000002 0.158901 -4.271189 3.362297 0.040997 -0.617278 7.599928 0.001107 -0.101696 1.248491 0.000001 0.000004 -0.000009 1.372269 -10.463564 9.367724 0.064191 -0.771400 9.513673 0.005371 0.223801 -2.748311 -0.000003 -0.000004 -0.000002 -1.026986 -16.175032 17.494925 0.090728 -0.915754 11.315842 0.000933 -0.093322 1.145650 -0.000000 0.000000 0.000004 -73.113931 0.599929 0.032914 42.393714 11.263568 0.259837 6.915463 27.848034 13.947042 -3.701743 -0.000003 0.000004 -0.000000 0.000000 -0.000000 -3.122089 -9.228217 -7.076952 52.305732 0.479889 8.559710 6.086144 -5.598185 14.070891 -14.147468 -4.842377 10.550343 0.000002 0.000002 -0.000003 
4.759348 73.342201 11.690088 16.425270 -14.303719 -4.225708 18.729448 7.257737 -7.254802 4.536946 -0.954497 -5.538568 6.872441 7.011179 -8.220298 -4.501823 4.115915 6.265408 -12.675881 1.343848 5.562565 -0.000000 0.000000 -0.000000 2.501791 1.304899 -18.501833 -7.954326 29.337063 -30.717680 0.000003 -10.312162 -0.000002 11.316770 -15.882724 32.949813 -7.403769 -7.393423 6.036116 9.709509 7.443592 2.809597 -9.384700 -11.769843 8.498361 0.000002 -0.000000 0.000000 -2.006799 20.143220 -16.291861 0.568364 2.519131 -25.424476 0.264948 1.743530 -17.279916 0.000002 -0.000003 0.000001 1.298543 9.778870 -9.827816 0.346151 1.985667 -19.774689 0.071238 0.911803 -8.934689 -0.000004 -0.000001 0.000005 0.053864 1.669575 -0.792353 0.235229 1.645008 -16.274867 0.009322 0.330937 -3.231165 -0.000002 0.000000 0.000004 3.157349 -7.167962 3.799532 0.143969 1.292079 -12.714648 0.000141 -0.041936 0.409102 -0.000002 0.000002 -0.000003 0.811111 10.493715 1.328960 -73.394419 72.799530 34.532870 0.000109 78.128355 -0.000089 44.548280 33.515315 -36.910988 -20.148221 30.181544 -6.265768 8.823574 -32.988024 -4.615187 -9.032105 -4.931960 -17.887835 0.000001 -0.000002 0.000002 1.920226 10.713908 3.375767 0.017899 -0.408311 5.018891 0.018435 0.414419 -5.094029 -0.000005 -0.000001 0.000001 0.287821 -4.449167 7.242230 0.088475 -0.904423 11.174011 0.024985 -0.482306 5.931228 -0.000002 0.000002 -0.000001 1.838243 -9.920214 13.983494 0.136425 -1.120127 13.887599 0.008617 -0.283548 3.482899 -0.000000 -0.000000 0.000000 0.287942 -15.133520 22.631864 0.196297 -1.339201 16.676925 0.043851 -0.638216 7.859461 -0.000001 -0.000003 0.000007 -75.649918 0.123467 0.593120 41.188486 13.157047 0.238701 9.431521 27.711618 13.319110 -3.920319 -0.000011 -0.000006 -0.000000 0.000000 -0.000000 6.005484 -8.702693 -6.280323 37.945253 -0.375727 8.834987 8.724843 -7.582465 13.951969 -41.987823 -18.118224 17.602700 0.000000 -0.000001 -0.000000 
